<svg width="64" height="64" viewBox="0 0 64 64" fill="none" xmlns="http://www.w3.org/2000/svg">
<path d="M37.3254 10.6666C38.2875 10.6666 39.2317 10.9269 40.0579 11.4198C40.8842 11.9127 41.5617 12.62 42.0187 13.4666L43.3147 15.8666C43.7717 16.7133 44.4492 17.4205 45.2755 17.9135C46.1017 18.4064 47.0459 18.6666 48.008 18.6666H53.3334C54.7479 18.6666 56.1044 19.2285 57.1046 20.2287C58.1048 21.2289 58.6667 22.5855 58.6667 24V48C58.6667 49.4144 58.1048 50.771 57.1046 51.7712C56.1044 52.7714 54.7479 53.3333 53.3334 53.3333H10.6667C9.25222 53.3333 7.89566 52.7714 6.89547 51.7712C5.89528 50.771 5.33337 49.4144 5.33337 48V24C5.33337 22.5855 5.89528 21.2289 6.89547 20.2287C7.89566 19.2285 9.25222 18.6666 10.6667 18.6666H15.992C16.9532 18.6667 17.8964 18.407 18.7221 17.9151C19.5478 17.4231 20.2252 16.7172 20.6827 15.872L21.9867 13.4613C22.4442 12.616 23.1216 11.9101 23.9473 11.4182C24.773 10.9262 25.7162 10.6666 26.6774 10.6666H37.3254Z" stroke="white" stroke-width="5.33333" stroke-linecap="round" stroke-linejoin="round"/>
<path d="M32 42.6666C36.4183 42.6666 40 39.0849 40 34.6666C40 30.2483 36.4183 26.6666 32 26.6666C27.5817 26.6666 24 30.2483 24 34.6666C24 39.0849 27.5817 42.6666 32 42.6666Z" stroke="white" stroke-width="5.33333" stroke-linecap="round" stroke-linejoin="round"/>
</svg>

